<svg version="1.2" xmlns="http://www.w3.org/2000/svg" viewBox="0 0 300 300" width="300" height="300">
	<title>3025143-ai</title>
	<style>
		tspan { white-space:pre } 
		.s0 { fill: none;stroke: #ad8955;stroke-miterlimit:10;stroke-width: 2 } 
		.s1 { fill: none;stroke: #ad8955;stroke-linecap: round;stroke-linejoin: round;stroke-width: 2 } 
		.s2 { fill: #ad8955 } 
	</style>
	<g id="OBJECTS">
		<g id="&lt;Group&gt;">
			<path id="&lt;Path&gt;" class="s0" d="m290.5 123.8c19.7 45.1-1 97.7-46.1 117.4-45.2 19.7-97.8-0.9-117.5-46.1-19.7-45.2 1-97.8 46.2-117.5 45.1-19.7 97.7 1 117.4 46.2z"/>
			<path id="&lt;Path&gt;" class="s0" d="m271.3 132.1c15.1 34.6-0.7 74.9-35.3 90-34.6 15-74.8-0.8-89.9-35.4-15.1-34.6 0.7-74.8 35.3-89.9 34.6-15.1 74.9 0.7 89.9 35.3z"/>
			<path id="&lt;Path&gt;" class="s0" d="m162.4 235.7c-16.3 21.5-42.1 35.4-71.2 35.4-49.3 0-89.2-40-89.2-89.2 0-49.3 39.9-89.3 89.2-89.3 17 0 32.9 4.8 46.4 13"/>
			<path id="&lt;Path&gt;" class="s0" d="m154 118.5c16.3 16.1 26.5 38.6 26.5 63.4 0 12.3-2.5 24-7.1 34.7"/>
			<path id="&lt;Path&gt;" class="s0" d="m145.9 222.8c-12.5 16.6-32.3 27.4-54.7 27.4-37.7 0-68.3-30.6-68.3-68.3 0-37.8 30.6-68.4 68.3-68.4 13.1 0 25.4 3.7 35.8 10.1"/>
			<path id="&lt;Path&gt;" class="s0" d="m143.8 138.2c9.8 11.8 15.8 27 15.8 43.7 0 7-1.1 13.9-3.1 20.3"/>
			<g id="&lt;Group&gt;">
				<g id="&lt;Group&gt;">
					<g id="&lt;Group&gt;">
						<path id="&lt;Path&gt;" class="s1" d="m149.3 37.9l-6.6 20.8 20.2 23.3"/>
					</g>
				</g>
				<path id="&lt;Path&gt;" class="s1" d="m161.3 50.6l35.9-15.7-25.2-6.9-17.3 7.5-17.3 7.6-12.1 23.2z"/>
				<path id="&lt;Path&gt;" class="s1" d="m190.8 71.2l6.4-36.3-35.9 15.7-36 15.7 31 20"/>
				<g id="&lt;Group&gt;">
					<path id="&lt;Path&gt;" class="s1" d="m160.1 33.2l19.8 9.3 3.3 30.7"/>
				</g>
			</g>
		</g>
		<g id="&lt;Group&gt;">
			<path id="&lt;Path&gt;" class="s2" d="m472.3 56.8c0 0.6-0.5 1.1-1.1 1.1-0.6 0-1.1-0.5-1.1-1.1 0-0.6 0.5-1.1 1.1-1.1 0.6 0 1.1 0.5 1.1 1.1z"/>
			<g id="&lt;Group&gt;">
				<path id="&lt;Path&gt;" class="s0" d="m499 96.1c0 4.2-5.8 7.6-13 7.6-7.3 0-13.1-3.4-13.1-7.6 0-4.3 5.8-7.7 13.1-7.7 7.2 0 13 3.4 13 7.7z"/>
				<path id="&lt;Path&gt;" class="s0" d="m534.6 115.2c0 4.3-5.8 7.7-13 7.7-7.2 0-13.1-3.4-13.1-7.7 0-4.2 5.9-7.6 13.1-7.6 7.2 0 13 3.4 13 7.6z"/>
				<path id="&lt;Path&gt;" class="s0" d="m499 96.1v-48.5l35.6 17.4v48.5"/>
				<path id="&lt;Path&gt;" class="s0" d="m499 55.4l35.6 17.4"/>
			</g>
			<path id="&lt;Path&gt;" class="s1" d="m479.5 64.1c0 4-3.2 7.2-7.2 7.2 4 0 7.2 3.2 7.2 7.2 0-4 3.2-7.2 7.2-7.2-4 0-7.2-3.2-7.2-7.2z"/>
			<path id="&lt;Path&gt;" class="s1" d="m531.9 40.4c0 4-3.2 7.2-7.2 7.2 4 0 7.2 3.2 7.2 7.2 0-4 3.2-7.2 7.2-7.2-4 0-7.2-3.2-7.2-7.2z"/>
			<path id="&lt;Path&gt;" class="s2" d="m481.7 47.6c0 0.6-0.5 1.1-1.1 1.1-0.6 0-1.1-0.5-1.1-1.1 0-0.6 0.5-1.1 1.1-1.1 0.6 0 1.1 0.5 1.1 1.1z"/>
			<path id="&lt;Path&gt;" class="s2" d="m522.7 39.3c0 0.6-0.5 1.1-1.1 1.1-0.6 0-1.1-0.5-1.1-1.1 0-0.6 0.5-1.1 1.1-1.1 0.6 0 1.1 0.5 1.1 1.1z"/>
			<path id="&lt;Path&gt;" class="s2" d="m545.4 60.3c0 0.6-0.5 1.1-1.1 1.1-0.6 0-1.1-0.5-1.1-1.1 0-0.6 0.5-1.1 1.1-1.1 0.6 0 1.1 0.5 1.1 1.1z"/>
			<path id="&lt;Path&gt;" class="s2" d="m521.6 78.5c0 0.6-0.5 1.1-1.1 1.1-0.6 0-1.1-0.5-1.1-1.1 0-0.6 0.5-1.1 1.1-1.1 0.6 0 1.1 0.5 1.1 1.1z"/>
		</g>
	</g>
</svg>