<svg width="100" height="100" viewBox="0 0 100 100" fill="none" xmlns="http://www.w3.org/2000/svg">
<g clip-path="url(#clip0_71_146)">
<path d="M96.8333 41.2666C103.4 56.3 96.4999 73.8333 81.4666 80.4C66.3999 86.9666 48.8666 80.1 42.2999 65.0333C35.7332 49.9666 42.6333 32.4333 57.6999 25.8666C72.7333 19.3 90.2666 26.2 96.8333 41.2666Z" stroke="#1F3866" stroke-width="2" stroke-miterlimit="10"/>
<path d="M90.4333 44.0333C95.4667 55.5667 90.2 69 78.6667 74.0333C67.1333 79.0333 53.7333 73.7667 48.7 62.2333C43.6667 50.7 48.9333 37.3 60.4667 32.2667C72 27.2333 85.4333 32.5 90.4333 44.0333Z" stroke="#1F3866" stroke-width="2" stroke-miterlimit="10"/>
<path d="M54.1333 78.5666C48.7 85.7333 40.1 90.3666 30.4 90.3666C13.9666 90.3666 0.666626 77.0333 0.666626 60.6333C0.666626 44.2 13.9666 30.8666 30.4 30.8666C36.0666 30.8666 41.3666 32.4666 45.8666 35.2" stroke="#1F3866" stroke-width="2" stroke-miterlimit="10"/>
<path d="M51.3333 39.5C56.7666 44.8667 60.1666 52.3667 60.1666 60.6333C60.1666 64.7333 59.3333 68.6333 57.7999 72.2" stroke="#1F3866" stroke-width="2" stroke-miterlimit="10"/>
<path d="M48.6333 74.2666C44.4666 79.8 37.8666 83.4 30.4 83.4C17.8333 83.4 7.6333 73.2 7.6333 60.6333C7.6333 48.0333 17.8333 37.8333 30.4 37.8333C34.7666 37.8333 38.8666 39.0666 42.3333 41.2" stroke="#1F3866" stroke-width="2" stroke-miterlimit="10"/>
<path d="M47.9333 46.0667C51.2 50 53.2 55.0667 53.2 60.6333C53.2 62.9667 52.8333 65.2667 52.1667 67.4" stroke="#1F3866" stroke-width="2" stroke-miterlimit="10"/>
<path d="M49.7667 12.6333L47.5667 19.5666L54.3 27.3333" stroke="#1F3866" stroke-width="2" stroke-linecap="round" stroke-linejoin="round"/>
<path d="M53.7666 16.8666L65.7333 11.6333L57.3333 9.33331L51.5666 11.8333L45.7999 14.3666L41.7666 22.1L53.7666 16.8666Z" stroke="#1F3866" stroke-width="2" stroke-linecap="round" stroke-linejoin="round"/>
<path d="M63.5999 23.7333L65.7333 11.6333L53.7666 16.8666L41.7666 22.1L52.0999 28.7666" stroke="#1F3866" stroke-width="2" stroke-linecap="round" stroke-linejoin="round"/>
<path d="M53.3666 11.0667L59.9666 14.1667L61.0666 24.4" stroke="#1F3866" stroke-width="2" stroke-linecap="round" stroke-linejoin="round"/>
</g>
<defs>
<clipPath id="clip0_71_146">
<rect width="100" height="100" fill="white"/>
</clipPath>
</defs>
</svg>
