<svg width="100" height="100" viewBox="0 0 100 100" fill="none" xmlns="http://www.w3.org/2000/svg">
<g clip-path="url(#clip0_71_130)">
<path d="M4.33337 47.4C4.33337 46.8 4.83337 46.3 5.43337 46.3H94.7C95.3334 46.3 95.8 46.8 95.8 47.4V98.4333C95.8 99.0667 95.3334 99.5333 94.7 99.5333H5.43337C4.83337 99.5333 4.33337 99.0667 4.33337 98.4333V47.4Z" stroke="#1F3866" stroke-width="2" stroke-linecap="round" stroke-linejoin="round"/>
<path d="M11.2667 54.3C11.2667 54 11.5001 53.7667 11.8001 53.7667H27.0001C27.3001 53.7667 27.5667 54 27.5667 54.3V64.2C27.5667 64.5333 27.3001 64.7667 27.0001 64.7667H11.8001C11.5001 64.7667 11.2667 64.5333 11.2667 64.2V54.3Z" stroke="#1F3866" stroke-width="2" stroke-linecap="round" stroke-linejoin="round"/>
<path d="M50.0667 91.3333C40.7667 91.3333 33.2334 83.8 33.2334 74.5C33.2334 65.1666 40.7667 57.6333 50.0667 57.6333C59.4001 57.6333 66.9334 65.1666 66.9334 74.5C66.9334 83.8 59.4001 91.3333 50.0667 91.3333Z" stroke="#1F3866" stroke-width="2" stroke-linecap="round" stroke-linejoin="round"/>
<path d="M50.0667 86.6C43.4 86.6 37.9667 81.2 37.9667 74.5C37.9667 67.8 43.4 62.4 50.0667 62.4C56.7667 62.4 62.1667 67.8 62.1667 74.5C62.1667 81.2 56.7667 86.6 50.0667 86.6Z" stroke="#1F3866" stroke-width="2" stroke-linecap="round" stroke-linejoin="round"/>
<path d="M69.9001 46.3H30.2334L33.3667 38.3H66.7667L69.9001 46.3Z" stroke="#1F3866" stroke-width="2" stroke-linecap="round" stroke-linejoin="round"/>
<path d="M86.4667 46.3H78.4667V42.3C78.4667 40.1 80.2667 38.3 82.4667 38.3C84.6667 38.3 86.4667 40.1 86.4667 42.3V46.3Z" stroke="#1F3866" stroke-width="2" stroke-linecap="round" stroke-linejoin="round"/>
<path d="M31.1001 15.6C31.1001 15.1333 31.4668 14.7667 31.9334 14.7667H68.2334C68.6668 14.7667 69.0334 15.1333 69.0334 15.6V32.3667C69.0334 32.8333 68.6668 33.2 68.2334 33.2H31.9334C31.4668 33.2 31.1001 32.8333 31.1001 32.3667V15.6Z" stroke="#1F3866" stroke-width="2" stroke-linecap="round" stroke-linejoin="round"/>
<path d="M31.1001 24.8333H36.8668L41.3334 21.4667L45.8334 24.9L50.2334 21.5667L54.5668 24.8333L59.0668 21.4333L63.2668 24.6H69.0334" stroke="#1F3866" stroke-width="2" stroke-linecap="round" stroke-linejoin="round"/>
<path d="M15.9333 22.1L23.9334 22.4334" stroke="#1F3866" stroke-width="2" stroke-linecap="round" stroke-linejoin="round"/>
<path d="M17.1 8.83337L25.1333 13.6667" stroke="#1F3866" stroke-width="2" stroke-linecap="round" stroke-linejoin="round"/>
<path d="M27.2667 0.666687L31.3001 7.56669" stroke="#1F3866" stroke-width="2" stroke-linecap="round" stroke-linejoin="round"/>
</g>
<defs>
<clipPath id="clip0_71_130">
<rect width="100" height="100" fill="white"/>
</clipPath>
</defs>
</svg>
