<svg version="1.2" xmlns="http://www.w3.org/2000/svg" viewBox="0 0 300 300" width="300" height="300">
	<title>3025143-ai</title>
	<style>
		tspan { white-space:pre } 
		.s0 { fill: #ad8955 } 
		.s1 { fill: none;stroke: #ad8955;stroke-miterlimit:10;stroke-width: 2 } 
		.s2 { fill: none;stroke: #ad8955;stroke-linecap: round;stroke-linejoin: round;stroke-width: 2 } 
	</style>
	<g id="OBJECTS">
		<g id="&lt;Group&gt;">
			<path id="&lt;Path&gt;" class="s0" d="m21.8 70.1c-2.1 0-3.8-1.7-3.8-3.8 0-2.1 1.7-3.9 3.8-3.9 2.2 0 3.9 1.8 3.9 3.9 0 2.1-1.7 3.8-3.9 3.8z"/>
			<g id="&lt;Group&gt;">
				<path id="&lt;Path&gt;" class="s1" d="m73.4 230.7c-25.3 0-45.7-12-45.7-26.9 0-14.8 20.4-26.9 45.7-26.9 25.3 0 45.7 12.1 45.7 26.9 0 14.9-20.4 26.9-45.7 26.9z"/>
				<path id="&lt;Path&gt;" class="s1" d="m198.3 298c-25.3 0-45.8-12-45.8-26.9 0-14.9 20.5-26.9 45.8-26.9 25.3 0 45.7 12 45.7 26.9 0 14.9-20.4 26.9-45.7 26.9z"/>
				<path id="&lt;Path&gt;" class="s1" d="m119.1 203.8v-169.9l124.9 61.2v169.9"/>
				<path id="&lt;Path&gt;" class="s1" d="m119.1 61.3l124.9 61.2"/>
			</g>
			<path id="&lt;Path&gt;" class="s2" d="m50.9 91.9c0 13.9-11.3 25.2-25.2 25.2 13.9 0 25.2 11.2 25.2 25.2 0-14 11.3-25.2 25.2-25.2-13.9 0-25.2-11.3-25.2-25.2z"/>
			<path id="&lt;Path&gt;" class="s2" d="m234.5 8.7c0 13.9-11.3 25.2-25.2 25.2 13.9 0 25.2 11.3 25.2 25.2 0-13.9 11.3-25.2 25.2-25.2-13.9 0-25.2-11.3-25.2-25.2z"/>
			<path id="&lt;Path&gt;" class="s0" d="m54.7 37.7c-2.1 0-3.8-1.7-3.8-3.8 0-2.1 1.7-3.9 3.8-3.9 2.2 0 3.9 1.8 3.9 3.9 0 2.1-1.7 3.8-3.9 3.8z"/>
			<path id="&lt;Path&gt;" class="s0" d="m198.3 8.7c-2.2 0-3.9-1.7-3.9-3.9 0-2.1 1.7-3.8 3.9-3.8 2.1 0 3.8 1.7 3.8 3.8 0 2.2-1.7 3.9-3.8 3.9z"/>
			<path id="&lt;Path&gt;" class="s0" d="m278 82.4c-2.1 0-3.8-1.7-3.8-3.8 0-2.1 1.7-3.9 3.8-3.9 2.2 0 3.9 1.8 3.9 3.9 0 2.1-1.7 3.8-3.9 3.8z"/>
			<path id="&lt;Path&gt;" class="s0" d="m194.4 146.1c-2.1 0-3.8-1.7-3.8-3.8 0-2.2 1.7-3.9 3.8-3.9 2.2 0 3.9 1.7 3.9 3.9 0 2.1-1.7 3.8-3.9 3.8z"/>
		</g>
	</g>
</svg>