<svg width="100" height="100" viewBox="0 0 100 100" fill="none" xmlns="http://www.w3.org/2000/svg">
<g clip-path="url(#clip0_71_115)">
<path d="M7.26667 23.3667C6.56667 23.3667 6 22.8 6 22.1C6 21.4 6.56667 20.8 7.26667 20.8C8 20.8 8.56667 21.4 8.56667 22.1C8.56667 22.8 8 23.3667 7.26667 23.3667Z" fill="#1F3866"/>
<path d="M24.4666 76.9C16.0333 76.9 9.23328 72.9 9.23328 67.9333C9.23328 63 16.0333 58.9667 24.4666 58.9667C32.8999 58.9667 39.6999 63 39.6999 67.9333C39.6999 72.9 32.8999 76.9 24.4666 76.9Z" stroke="#1F3866" stroke-width="2" stroke-miterlimit="10"/>
<path d="M66.0999 99.3334C57.6666 99.3334 50.8333 95.3334 50.8333 90.3667C50.8333 85.4 57.6666 81.4 66.0999 81.4C74.5333 81.4 81.3333 85.4 81.3333 90.3667C81.3333 95.3334 74.5333 99.3334 66.0999 99.3334Z" stroke="#1F3866" stroke-width="2" stroke-miterlimit="10"/>
<path d="M39.7 67.9334V11.3L81.3333 31.7V88.3334" stroke="#1F3866" stroke-width="2" stroke-miterlimit="10"/>
<path d="M39.7 20.4333L81.3333 40.8333" stroke="#1F3866" stroke-width="2" stroke-miterlimit="10"/>
<path d="M16.9667 30.6334C16.9667 35.2668 13.2 39.0334 8.56665 39.0334C13.2 39.0334 16.9667 42.7668 16.9667 47.4334C16.9667 42.7668 20.7333 39.0334 25.3667 39.0334C20.7333 39.0334 16.9667 35.2668 16.9667 30.6334Z" stroke="#1F3866" stroke-width="2" stroke-linecap="round" stroke-linejoin="round"/>
<path d="M78.1667 2.90002C78.1667 7.53336 74.4001 11.3 69.7667 11.3C74.4001 11.3 78.1667 15.0667 78.1667 19.7C78.1667 15.0667 81.9334 11.3 86.5667 11.3C81.9334 11.3 78.1667 7.53336 78.1667 2.90002Z" stroke="#1F3866" stroke-width="2" stroke-linecap="round" stroke-linejoin="round"/>
<path d="M18.2333 12.5667C17.5333 12.5667 16.9667 12 16.9667 11.3C16.9667 10.6 17.5333 10 18.2333 10C18.9667 10 19.5333 10.6 19.5333 11.3C19.5333 12 18.9667 12.5667 18.2333 12.5667Z" fill="#1F3866"/>
<path d="M66.1001 2.90004C65.3667 2.90004 64.8 2.33337 64.8 1.60004C64.8 0.900041 65.3667 0.333374 66.1001 0.333374C66.8001 0.333374 67.3667 0.900041 67.3667 1.60004C67.3667 2.33337 66.8001 2.90004 66.1001 2.90004Z" fill="#1F3866"/>
<path d="M92.6667 27.4667C91.9667 27.4667 91.4 26.9 91.4 26.2C91.4 25.5 91.9667 24.9 92.6667 24.9C93.4 24.9 93.9667 25.5 93.9667 26.2C93.9667 26.9 93.4 27.4667 92.6667 27.4667Z" fill="#1F3866"/>
<path d="M64.8 48.7001C64.1 48.7001 63.5333 48.1334 63.5333 47.4334C63.5333 46.7001 64.1 46.1334 64.8 46.1334C65.5333 46.1334 66.1 46.7001 66.1 47.4334C66.1 48.1334 65.5333 48.7001 64.8 48.7001Z" fill="#1F3866"/>
</g>
<defs>
<clipPath id="clip0_71_115">
<rect width="100" height="100" fill="white"/>
</clipPath>
</defs>
</svg>
