<svg width="166" height="104" viewBox="0 0 166 104" fill="none" xmlns="http://www.w3.org/2000/svg">
<path d="M117.545 17.35L113.195 15L115.619 19.2L117.545 17.35Z" fill="#1F3866"/>
<path d="M124.843 25.0598C126.275 26.3714 128.991 27.4616 132.265 27.3753C135.935 27.2786 140.203 25.6938 143.817 21.3604L124.843 25.0598ZM124.843 25.0598L143.295 2.41681C143.439 2.6577 143.599 2.93383 143.768 3.24157C144.449 4.48215 145.277 6.22123 145.875 8.2254C147.075 12.2473 147.307 17.1663 143.817 21.3602L124.843 25.0598Z" stroke="#1F3866" stroke-width="2"/>
<path d="M132.717 20.6L141.797 24.2" stroke="#1F3866" stroke-width="2" stroke-miterlimit="10"/>
<path d="M134.593 17.9167L146.296 18.2" stroke="#1F3866" stroke-width="2" stroke-miterlimit="10"/>
<path d="M136.817 14.65L147.176 12.5667" stroke="#1F3866" stroke-width="2" stroke-miterlimit="10"/>
<path d="M138.344 11.5667L145.947 8.16667" stroke="#1F3866" stroke-width="2" stroke-miterlimit="10"/>
<path d="M123.098 23.9718L122.791 24.6123L123.301 25.1134L134.855 36.4634L134.935 36.5421L135.031 36.6011L159.898 51.9411C158.613 53.3829 157.492 53.7438 156.754 53.8009C156.298 53.836 155.928 53.7611 155.678 53.6813C155.553 53.6415 155.46 53.601 155.403 53.574C155.376 53.5606 155.357 53.5507 155.349 53.5463C155.349 53.546 155.348 53.5457 155.348 53.5455L154.769 53.1844L154.219 53.6072C152.443 54.9721 150.997 55.1095 150.05 54.9782C149.56 54.9104 149.174 54.7663 148.916 54.6434C148.787 54.5821 148.692 54.5268 148.634 54.4905C148.605 54.4725 148.586 54.4593 148.576 54.4527C148.574 54.4513 148.573 54.4502 148.572 54.4494L148.201 54.1669L147.739 54.2776C147.499 54.3353 147.248 54.4433 147.051 54.5316C146.952 54.5759 146.863 54.6166 146.776 54.6569C146.65 54.7146 146.526 54.7717 146.374 54.8381C145.897 55.0463 145.397 55.2286 144.88 55.2959C144.378 55.3613 143.867 55.3172 143.348 55.0722C142.823 54.8247 142.215 54.337 141.582 53.3931L141.579 53.3893C140.154 51.284 138.288 48.4948 136.778 46.2305C136.023 45.0986 135.357 44.0985 134.88 43.3813L134.318 42.5367L134.167 42.3091L134.128 42.2502L134.118 42.2352L134.115 42.2314L134.115 42.2305L134.115 42.2302L133.281 42.7833L134.115 42.2302L133.549 41.3788L132.71 41.9624C130.873 43.2407 128.556 43.5333 126.347 43.1618C124.124 42.7878 122.16 41.7653 121.079 40.615L121.078 40.6143C118.428 37.8016 117.888 34.4689 118.031 31.7715C118.102 30.4231 118.344 29.2518 118.568 28.4185C118.68 28.0029 118.787 27.6742 118.864 27.4528C118.903 27.3422 118.934 27.2587 118.955 27.2048C118.965 27.1779 118.973 27.1583 118.977 27.1466L118.982 27.1349L118.982 27.1348C118.982 27.1344 118.983 27.1341 118.983 27.1338C118.983 27.1336 118.983 27.1338 118.983 27.1337C118.983 27.1336 118.983 27.1333 118.983 27.1333L119.299 26.3752L118.617 25.9202C118.618 25.9204 118.617 25.9201 118.616 25.9196C118.616 25.9195 118.616 25.9196 118.616 25.9195L118.603 25.9101C118.589 25.9002 118.565 25.8834 118.533 25.8596C118.47 25.812 118.373 25.7372 118.254 25.6361C118.015 25.4331 117.691 25.1289 117.36 24.7323C116.694 23.9335 116.04 22.8087 115.936 21.4092L115.935 21.4055C115.615 17.3021 120.09 15.9049 122.22 18.3415L122.22 18.3415L122.224 18.3457C123.384 19.6575 123.597 21.0515 123.523 22.143C123.486 22.6946 123.374 23.1648 123.273 23.4948C123.222 23.6589 123.175 23.7858 123.142 23.8677C123.126 23.9086 123.113 23.938 123.106 23.9551L123.099 23.9711L123.099 23.9711C123.098 23.9722 123.098 23.9724 123.098 23.9718Z" stroke="#1F3866" stroke-width="2"/>
<path d="M154.828 53.8468L141.847 43.0968" stroke="#1F3866" stroke-width="2" stroke-miterlimit="10"/>
<path d="M147.972 54.6968L139.357 44.4635" stroke="#1F3866" stroke-width="2" stroke-miterlimit="10"/>
<path d="M119.337 19.6667C118.972 19.6667 118.673 19.3667 118.673 19C118.673 18.6333 118.972 18.35 119.337 18.35C119.703 18.35 120.001 18.6333 120.001 19C120.001 19.3667 119.703 19.6667 119.337 19.6667Z" fill="#1F3866"/>
<path d="M131.467 34.4341C127.618 31.6644 125.451 27.9569 125.064 25.1706L164.615 15.5436C164.57 16.0404 164.501 16.6607 164.398 17.3752C164.118 19.3113 163.586 21.9219 162.579 24.6354C160.559 30.0764 156.702 35.7674 149.29 37.4927C141.692 39.2592 135.633 37.4317 131.467 34.4341Z" fill="#FFFFF0" stroke="#1F3866" stroke-width="2"/>
<path d="M133.032 29.05L134.228 36.3667" stroke="#1F3866" stroke-width="2" stroke-miterlimit="10"/>
<path d="M137.73 27.1167L144.669 38.55" stroke="#1F3866" stroke-width="2" stroke-miterlimit="10"/>
<path d="M141.98 25.7333L154.513 35.75" stroke="#1F3866" stroke-width="2" stroke-miterlimit="10"/>
<path d="M147.076 24.0167L160.09 30.3167" stroke="#1F3866" stroke-width="2" stroke-miterlimit="10"/>
<path d="M151.276 21.9167L162.381 24.5" stroke="#1F3866" stroke-width="2" stroke-miterlimit="10"/>
<path d="M48.3226 30.6L52.6718 28.2667L50.2316 32.4667L48.3226 30.6Z" fill="#1F3866"/>
<path d="M22.0997 16.4937C22.2687 16.1856 22.4282 15.9091 22.5722 15.6679L41.0216 38.3232C39.5823 39.6311 36.8618 40.7203 33.589 40.6357C29.9188 40.541 25.6555 38.96 22.0499 34.627C18.5601 30.4331 18.7927 25.51 19.9924 21.4835C20.5902 19.4771 21.4182 17.7359 22.0997 16.4937Z" stroke="#1F3866" stroke-width="2"/>
<path d="M33.1337 33.8667L24.0701 37.45L33.1337 33.8667Z" fill="#1F3866"/>
<path d="M33.1337 33.8667L24.0701 37.45" stroke="#1F3866" stroke-width="2" stroke-miterlimit="10"/>
<path d="M31.2745 31.1667L19.5549 31.4667L31.2745 31.1667Z" fill="#1F3866"/>
<path d="M31.2745 31.1667L19.5549 31.4667" stroke="#1F3866" stroke-width="2" stroke-miterlimit="10"/>
<path d="M29.0334 27.9167L18.6917 25.8167L29.0334 27.9167Z" fill="#1F3866"/>
<path d="M29.0334 27.9167L18.6917 25.8167" stroke="#1F3866" stroke-width="2" stroke-miterlimit="10"/>
<path d="M27.5062 24.8333L19.9034 21.4167L27.5062 24.8333Z" fill="#1F3866"/>
<path d="M27.5062 24.8333L19.9034 21.4167" stroke="#1F3866" stroke-width="2" stroke-miterlimit="10"/>
<path d="M42.5655 38.3805L43.0784 37.8775L42.7673 37.2351L42.767 37.2344L42.767 37.2343L42.7666 37.2336L42.766 37.2324L42.7597 37.2183C42.7521 37.2013 42.7393 37.1718 42.7228 37.1309C42.6896 37.049 42.6418 36.9221 42.5907 36.758C42.4878 36.4279 42.3747 35.9578 42.3357 35.4065C42.2585 34.3156 42.4682 32.9231 43.627 31.6124L43.6307 31.6081C45.7579 29.1748 50.2374 30.5648 49.9318 34.6728C49.8203 36.073 49.1622 37.1987 48.4935 37.9979C48.1615 38.3949 47.8365 38.6993 47.5972 38.9024C47.478 39.0036 47.3814 39.0785 47.3175 39.1262C47.2856 39.1499 47.262 39.1668 47.248 39.1767L47.2363 39.1849L47.2357 39.1853L47.2352 39.1856L47.2345 39.1861L47.2344 39.1862L47.2334 39.1869L46.5517 39.6418L46.8678 40.4L46.868 40.4004L46.8682 40.4009L46.8684 40.4014L46.8685 40.4015L46.8732 40.4132C46.8779 40.425 46.8857 40.4445 46.896 40.4715C46.9168 40.5254 46.948 40.6089 46.9866 40.7195C47.064 40.9408 47.1707 41.2695 47.2826 41.6852C47.5069 42.5185 47.7488 43.6898 47.82 45.0381C47.9624 47.7356 47.4223 51.0683 44.7728 53.881L44.7721 53.8816C43.6904 55.032 41.7273 56.0543 39.5049 56.4262C37.2967 56.7957 34.98 56.4996 33.1425 55.214L32.303 54.6266L31.7362 55.4802L32.5693 56.0333L31.7361 55.4802L31.736 55.4805L31.7353 55.4814L31.7328 55.4852L31.7229 55.5002L31.6837 55.5592L31.5324 55.7869L30.971 56.6319C30.4941 57.3495 29.8287 58.3503 29.0745 59.4835C27.5666 61.7492 25.7048 64.5428 24.2867 66.6577C23.6507 67.5964 23.0405 68.0815 22.5137 68.3275C21.9915 68.5714 21.4784 68.6145 20.974 68.5481C20.4556 68.4799 19.9544 68.2969 19.4769 68.0885C19.3248 68.022 19.201 67.965 19.076 67.9075C18.9881 67.867 18.8996 67.8262 18.8001 67.7817C18.6029 67.6933 18.3521 67.5853 18.1114 67.5276L17.6499 67.4169L17.2789 67.6995C17.2778 67.7003 17.2762 67.7014 17.2742 67.7027C17.2647 67.7094 17.2452 67.7226 17.2162 67.7407C17.1581 67.777 17.063 67.8324 16.9342 67.8939C16.6758 68.0172 16.2892 68.1618 15.7992 68.2305C14.8506 68.3636 13.4046 68.2292 11.6298 66.8723L11.0803 66.4521L10.5029 66.8122C10.5025 66.8124 10.502 66.8127 10.5015 66.813C10.4934 66.8174 10.4751 66.8273 10.4471 66.8407C10.391 66.8677 10.2978 66.9082 10.1728 66.9481C9.92268 67.0279 9.55312 67.1027 9.09929 67.0676C8.36314 67.0106 7.24554 66.6503 5.96646 65.2089L30.8203 49.8676L30.9155 49.8089L30.9953 49.7305L42.5655 38.3805ZM17.281 67.698C17.281 67.6979 17.281 67.698 17.2809 67.698L17.281 67.698Z" stroke="#1F3866" stroke-width="2"/>
<path d="M11.0225 67.1135L24.0203 56.3468L11.0225 67.1135Z" fill="#1F3866"/>
<path d="M11.0225 67.1135L24.0203 56.3468" stroke="#1F3866" stroke-width="2" stroke-miterlimit="10"/>
<path d="M18.1993 67.7652L26.8147 57.5319L18.1993 67.7652Z" fill="#1F3866"/>
<path d="M18.1993 67.7652L26.8147 57.5319" stroke="#1F3866" stroke-width="2" stroke-miterlimit="10"/>
<path d="M46.5132 32.9333C46.148 32.9333 45.8492 32.6333 45.8492 32.2667C45.8492 31.9 46.148 31.6 46.5132 31.6C46.8784 31.6 47.1772 31.9 47.1772 32.2667C47.1772 32.6333 46.8784 32.9333 46.5132 32.9333Z" fill="#1F3866"/>
<path d="M1.46708 30.6425C1.36426 29.9276 1.29618 29.307 1.25124 28.81L40.801 38.4368C40.4076 41.2246 38.2401 44.9321 34.394 47.7009C30.2305 50.6984 24.1756 52.5259 16.5775 50.7593C9.15656 49.0339 5.29977 43.3428 3.28238 37.9023C2.27624 35.189 1.74551 32.5785 1.46708 30.6425Z" fill="#FFFFF0" stroke="#1F3866" stroke-width="2"/>
<path d="M32.8182 42.3167L31.6396 49.6333L32.8182 42.3167Z" fill="#1F3866"/>
<path d="M32.8182 42.3167L31.6396 49.6333" stroke="#1F3866" stroke-width="2" stroke-miterlimit="10"/>
<path d="M28.1204 40.3833L21.1816 51.8167L28.1204 40.3833Z" fill="#1F3866"/>
<path d="M28.1204 40.3833L21.1816 51.8167" stroke="#1F3866" stroke-width="2" stroke-miterlimit="10"/>
<path d="M23.8874 39L11.3544 49L23.8874 39Z" fill="#1F3866"/>
<path d="M23.8874 39L11.3544 49" stroke="#1F3866" stroke-width="2" stroke-miterlimit="10"/>
<path d="M18.7747 37.2833L5.76025 43.5667L18.7747 37.2833Z" fill="#1F3866"/>
<path d="M18.7747 37.2833L5.76025 43.5667" stroke="#1F3866" stroke-width="2" stroke-miterlimit="10"/>
<path d="M14.5748 35.1833L3.46936 37.7667L14.5748 35.1833Z" fill="#1F3866"/>
<path d="M14.5748 35.1833L3.46936 37.7667" stroke="#1F3866" stroke-width="2" stroke-miterlimit="10"/>
<path d="M104.534 52.9363L104.536 52.9366C115.684 55.7348 122.501 67.1401 119.712 78.3417C116.906 89.558 105.546 96.3781 94.3986 93.5801C83.2514 90.7821 76.4336 79.3775 79.2226 68.1588C82.0279 56.9579 93.389 50.1228 104.534 52.9363ZM82.7768 69.0575L82.7764 69.0593C80.4868 78.2899 86.0853 87.6841 95.2887 90.003C104.493 92.3223 113.85 86.6924 116.158 77.4592C118.465 68.2274 112.849 58.8153 103.645 56.5134C94.4403 54.1948 85.0846 59.8246 82.7768 69.0575Z" stroke="#1F3866" stroke-width="2"/>
<path d="M121.559 34.1201L127.739 42.7003L117.072 47.7436L117.067 47.746L115.678 48.3936L115.1 48.6628V48.683L105.003 53.4521L100.766 46.6248L100.765 46.6227L100.036 45.4414L100.035 45.4396L91.1115 31.0531L100.042 26.8247L100.059 26.8304L100.063 26.8316L121.559 34.1201Z" fill="#FFFFF0" stroke="#1F3866" stroke-width="2"/>
<path d="M89.6732 30.6167L108.448 43L129.248 43.1" stroke="#1F3866" stroke-width="1.8" stroke-linecap="round" stroke-linejoin="round"/>
<path d="M99.9818 25.75L110.938 34.4333L122.309 33.45" stroke="#1F3866" stroke-width="1.8" stroke-linecap="round" stroke-linejoin="round"/>
<path d="M110.938 34.4333L108.448 43L104.497 54.5333L96.5125 35.1333L103.767 28.8833" stroke="#1F3866" stroke-width="1.8" stroke-linecap="round" stroke-linejoin="round"/>
<path d="M121.91 42.9667L104.497 54.5333" stroke="#1F3866" stroke-width="1.8" stroke-linecap="round" stroke-linejoin="round"/>
<path d="M119.055 33.9L121.877 43.0333" stroke="#1F3866" stroke-width="1.8" stroke-linecap="round" stroke-linejoin="round"/>
<path d="M65.6528 60.76L65.6541 60.7596C76.5013 56.9279 88.4458 62.6673 92.2481 73.579L92.2487 73.5807C96.0675 84.4787 90.3293 96.458 79.4797 100.29C68.6343 104.121 56.7041 98.3678 52.8851 87.4693C49.0659 76.5703 54.8055 64.5758 65.6528 60.76ZM66.8649 64.2233L66.8627 64.2241C57.9272 67.3915 53.1895 77.2608 56.3427 86.247C59.4791 95.2326 69.3281 99.9779 78.2689 96.81C87.2252 93.6592 91.9432 83.7875 88.8079 74.8038L88.8074 74.8022C85.6541 65.8174 75.8223 61.0721 66.8649 64.2233Z" stroke="#1F3866" stroke-width="2"/>
<path d="M69.5504 35.6405L79.3944 39.3884L73.2639 49.4982L73.2634 49.4989L72.4674 50.8143L72.4666 50.8156L66.3223 60.9334L59.0508 57.5757L59.0504 57.5754L57.7892 56.9923L57.7885 56.992L42.4439 49.9126L47.5999 41.4498L69.5504 35.6405Z" fill="#FFFFF0" stroke="#1F3866" stroke-width="2"/>
<path d="M41.002 50.35L63.4618 50.3L80.8752 38.8833" stroke="#1F3866" stroke-width="1.8" stroke-linecap="round" stroke-linejoin="round"/>
<path d="M46.9447 40.5833L60.8389 41.7833L69.8029 34.6667" stroke="#1F3866" stroke-width="1.8" stroke-linecap="round" stroke-linejoin="round"/>
<path d="M60.839 41.7833L63.4618 50.3L66.4996 62.1167L49.1858 50.3333L51.8086 41.1167" stroke="#1F3866" stroke-width="1.8" stroke-linecap="round" stroke-linejoin="round"/>
<path d="M74.6999 42.8333L66.4995 62.1167" stroke="#1F3866" stroke-width="1.8" stroke-linecap="round" stroke-linejoin="round"/>
<path d="M67.3296 36.85L74.6834 42.9" stroke="#1F3866" stroke-width="1.8" stroke-linecap="round" stroke-linejoin="round"/>
</svg>
