<svg version="1.2" xmlns="http://www.w3.org/2000/svg" viewBox="0 0 300 300" width="300" height="300">
	<title>3021796-ai</title>
	<style>
		.s0 { fill: none;stroke: #000000;stroke-miterlimit:10;stroke-width: 1.8 } 
	</style>
	<g id="OBJECTS">
		<g id="&lt;Group&gt;">
			<g id="&lt;Group&gt;">
				<g id="&lt;Group&gt;">
					<path id="&lt;Path&gt;" class="s0" d="m35.4 172.3h199.1v123.8h-199.1z"/>
					<path id="&lt;Path&gt;" class="s0" d="m124.2 172.3v123.8"/>
					<path id="&lt;Path&gt;" class="s0" d="m154.7 172.3v123.8"/>
					<path id="&lt;Path&gt;" class="s0" d="m73.6 153.3l-24.4-11.6c-2.7-1.6-5-3.8-6.3-6.7-1.2-2.5-1.8-5.8 0-9.3 4-7.6 8.8-8.3 16.2-4.1 0 0 3.7-15.1 15.7-10.3 8.6 3.5 6.2 13.1 4.2 22.3-1.7 8.5-5.4 19.7-5.4 19.7z"/>
					<path id="&lt;Path&gt;" class="s0" d="m103.5 167.2l-13.8-17.7c-1.4-2.2-2.3-4.7-2.2-7.3 0-2.4 0.8-5.1 3.4-6.9 5.9-4.2 9.7-2.9 13.6 2.9 0 0 8.4-9.8 15.6-1.8 5.1 5.8-0.3 12.1-5.2 18.2-4.5 5.7-11.4 12.6-11.4 12.6z"/>
					<g id="&lt;Group&gt;">
						<path id="&lt;Path&gt;" class="s0" d="m247.8 174.2l-190.9-83.9 18.5-42.1 190.9 83.9z"/>
						<path id="&lt;Path&gt;" class="s0" d="m166.1 138.3l-27.9-12.2 18.5-42.2 27.9 12.3z"/>
						<g id="&lt;Group&gt;">
							<path id="&lt;Path&gt;" class="s0" d="m166.6 88.2c0 0-79.5-66.5-27.3-85 38.4-13.5 27.3 85 27.3 85z"/>
							<path id="&lt;Path&gt;" class="s0" d="m157.7 63.8c0 0-38-31.8-13.1-40.6 18.4-6.5 13.1 40.6 13.1 40.6z"/>
						</g>
						<g id="&lt;Group&gt;">
							<path id="&lt;Path&gt;" class="s0" d="m170.7 90c0 0 102.8 13.5 81.1-37.4-16-37.4-81.1 37.4-81.1 37.4z"/>
							<path id="&lt;Path&gt;" class="s0" d="m194.7 80.1c0 0 49.1 6.4 38.7-17.9-7.6-17.9-38.7 17.9-38.7 17.9z"/>
						</g>
					</g>
				</g>
			</g>
		</g>
	</g>
</svg>